<svg data-name="Слой 1" xmlns="http://www.w3.org/2000/svg" width="98.28" height="95.35"><path d="M27.68 39.8l7.62 26.91-24 6.83a5 5 0 0 1-6.18-3.44L.21 52.78a5 5 0 0 1 3.44-6.17zM78.42 2.51L98.1 71.77c.75 2.65-.86 4.43-3.56 4l-51.4-9-4.91-.86-7.66-26.93 3.73-3.27 39-34.64c2.07-1.87 4.37-1.2 5.12 1.44zm15.62 25.71l4.1 14.43a2 2 0 0 1-1.38 2.47l-2.88.82-5.19-18.27 2.88-.82a2 2 0 0 1 2.47 1.37zM25.3 71.71l6.85 16.77a5 5 0 0 1-3.45 6.18l-1.92.54a5 5 0 0 1-6.18-3.44l-6.84-16.77zm4.56 4.89l-2.6-5.5 1.92-.54 2.07 3.61a2 2 0 0 1-1.39 2.43z" fill="#da2238"/></svg>