<svg id="Слой_1" data-name="Слой 1" xmlns="http://www.w3.org/2000/svg" width="98.28" height="95.35" viewBox="0 0 98.28 95.35"><defs><style>.cls-1{fill:#da2238;}</style></defs><title>Megaphone</title><path class="cls-1" d="M-1175.62,122.09-1168,149l-24,6.83a5,5,0,0,1-6.18-3.44l-4.91-17.32a5,5,0,0,1,3.44-6.17Z" transform="translate(1203.3 -82.29)"/><path class="cls-1" d="M-1124.88,84.8l19.68,69.26c.75,2.65-.86,4.43-3.56,4l-51.4-9h0l-4.91-.86-7.66-26.93L-1169,118h0l39-34.64C-1127.93,81.49-1125.63,82.16-1124.88,84.8Z" transform="translate(1203.3 -82.29)"/><path class="cls-1" d="M-1109.26,110.51l4.1,14.43a2,2,0,0,1-1.38,2.47l-2.88.82-5.19-18.27,2.88-.82A2,2,0,0,1-1109.26,110.51Z" transform="translate(1203.3 -82.29)"/><path class="cls-1" d="M-1178,154l6.85,16.77a5,5,0,0,1-3.45,6.18l-1.92.54a5,5,0,0,1-6.18-3.44l-6.84-16.77Z" transform="translate(1203.3 -82.29)"/><path class="cls-1" d="M-1173.44,158.89h0l-2.6-5.5,1.92-.54,2.07,3.61A2,2,0,0,1-1173.44,158.89Z" transform="translate(1203.3 -82.29)"/></svg>