<svg id="Слой_1" data-name="Слой 1" xmlns="http://www.w3.org/2000/svg" width="119.68" height="100.62" viewBox="0 0 119.68 100.62"><defs><style>.cls-1{fill:#da2238;}</style></defs><title>comments</title><path class="cls-1" d="M-934,154.05a9.27,9.27,0,0,1-8.68,6.32H-984a1.5,1.5,0,0,0-1.09.47l-15.65,16.63v-15.6a1.5,1.5,0,0,0-1.5-1.5h-5.9a9.41,9.41,0,0,1-9.23-9.57V110.93a9.42,9.42,0,0,1,9.23-9.58h16.54v-3h-16.54a12.42,12.42,0,0,0-12.23,12.58V150.8a12.42,12.42,0,0,0,12.23,12.57h4.4v17.88a1.51,1.51,0,0,0,.95,1.4,1.52,1.52,0,0,0,.55.1,1.46,1.46,0,0,0,1.09-.47l17.8-18.91h40.66a12.21,12.21,0,0,0,10.93-6.94Z" transform="translate(1020.41 -82.13)"/><path class="cls-1" d="M-911.46,82.13h-65.45a10.94,10.94,0,0,0-10.73,11.08v39.87a10.94,10.94,0,0,0,10.73,11.07h41.31l18.24,19.38V144.15h5.9a10.94,10.94,0,0,0,10.73-11.07V93.21A10.94,10.94,0,0,0-911.46,82.13Zm-52,36.67a4.36,4.36,0,0,1-4.29-4.43,4.37,4.37,0,0,1,4.29-4.43,4.37,4.37,0,0,1,4.29,4.43A4.36,4.36,0,0,1-963.5,118.8Zm19.31,0a4.36,4.36,0,0,1-4.29-4.43,4.37,4.37,0,0,1,4.29-4.43,4.37,4.37,0,0,1,4.3,4.43A4.36,4.36,0,0,1-944.19,118.8Zm19.32,0a4.36,4.36,0,0,1-4.29-4.43,4.37,4.37,0,0,1,4.29-4.43,4.37,4.37,0,0,1,4.29,4.43A4.36,4.36,0,0,1-924.87,118.8Z" transform="translate(1020.41 -82.13)"/></svg>