<svg id="Слой_1" data-name="Слой 1" xmlns="http://www.w3.org/2000/svg" width="85.05" height="75.5" viewBox="0 0 85.05 75.5"><defs><style>.cls-1{fill:#da2238;}</style></defs><title>Statisic</title><path class="cls-1" d="M-742.32,152.57a27.39,27.39,0,0,0,8.55-19.44h-28Z" transform="translate(810.81 -91.13)"/><path class="cls-1" d="M-767.76,102.64a32,32,0,0,0-31.5,32,32,32,0,0,0,32,32,31.94,31.94,0,0,0,22.13-8.87l-22.63-22.63Z" transform="translate(810.81 -91.13)"/><path class="cls-1" d="M-762.26,91.13h-.5v37h37c0-.17,0-.33,0-.5A36.5,36.5,0,0,0-762.26,91.13Z" transform="translate(810.81 -91.13)"/><path class="cls-1" d="M-810.73,131.41c0,.87-.08,1.75-.08,2.61v1h4v-1c0-.79,0-1.59.07-2.38l.06-1-4-.23Z" transform="translate(810.81 -91.13)"/><path class="cls-1" d="M-790.89,101.78A40.85,40.85,0,0,1-786.76,99l.86-.51-2-3.45-.86.51a44.39,44.39,0,0,0-4.53,3.06l-.8.61,2.44,3.17Z" transform="translate(810.81 -91.13)"/><path class="cls-1" d="M-798,108.74a41.53,41.53,0,0,1,3.33-3.69l.72-.7-2.81-2.86-.71.7a45.31,45.31,0,0,0-3.66,4.06l-.62.78,3.13,2.5Z" transform="translate(810.81 -91.13)"/><path class="cls-1" d="M-804.25,110.73a44.6,44.6,0,0,0-2.56,4.83l-.42.91,3.64,1.65.42-.91a41,41,0,0,1,2.33-4.39l.53-.85-3.41-2.09Z" transform="translate(810.81 -91.13)"/><path class="cls-1" d="M-808.77,120.67a45.72,45.72,0,0,0-1.31,5.31l-.18,1,3.94.72.17-1a40.56,40.56,0,0,1,1.2-4.83l.3-1-3.82-1.2Z" transform="translate(810.81 -91.13)"/><path class="cls-1" d="M-782.32,96.74c.72-.31,1.47-.61,2.22-.88l.94-.35-1.37-3.75-.94.34c-.82.3-1.64.62-2.43,1l-.92.39,1.59,3.68Z" transform="translate(810.81 -91.13)"/></svg>